<?xml version="1.0" encoding="UTF-8" standalone="no"?>
<svg
   xmlns:dc="http://purl.org/dc/elements/1.1/"
   xmlns:cc="http://creativecommons.org/ns#"
   xmlns:rdf="http://www.w3.org/1999/02/22-rdf-syntax-ns#"
   xmlns:svg="http://www.w3.org/2000/svg"
   xmlns="http://www.w3.org/2000/svg"
   version="1.1"
   id="svg2"
   viewBox="0 0 128 203.00001"
   height="203"
   width="128">
  <defs
     id="defs4" />
  <metadata
     id="metadata7">
    <rdf:RDF>
      <cc:Work
         rdf:about="">
        <dc:format>image/svg+xml</dc:format>
        <dc:type
           rdf:resource="http://purl.org/dc/dcmitype/StillImage" />
        <dc:title></dc:title>
      </cc:Work>
    </rdf:RDF>
  </metadata>
  <g
     transform="translate(0,-849.36217)"
     id="layer1">
    <g
       transform="translate(153.14124,236.28661)"
       id="g3449">
      <g
         id="g3373">
        <path
           id="path3451"
           d="m -139.14031,728.4238 c -3.85192,0.54016 -8.33787,1.65676 -10.67241,3.07627 -2.11257,1.28503 -1.83528,5.06758 -0.33239,6.93884 1.5862,1.97579 3.44767,1.87011 5.69497,0.83642 1.47507,-0.67864 3.2516,-2.19085 5.08687,-3.88476 0.0459,-1.47594 0.0976,-2.95299 0.15644,-4.42691 0.0361,-0.87504 0.0564,-1.72039 0.0665,-2.53986 z"
           stroke-miterlimit="10"
           style="fill:#ffffff;stroke:#000000;stroke-width:3.6128912;stroke-linecap:round;stroke-linejoin:round;stroke-miterlimit:10;stroke-dasharray:none" />
        <path
           id="path3453"
           d="m -28.469842,730.20438 c -2.159479,-1.31297 -6.158549,-2.36594 -9.794826,-2.9444 0.09097,1.96256 0.216231,4.12032 0.385539,6.55418 0.03035,0.43965 0.06077,0.87331 0.09014,1.30404 1.427848,1.26086 2.787169,2.32301 3.956167,2.86115 2.247876,1.03398 4.108771,1.13965 5.694979,-0.83613 1.503288,-1.87126 1.780852,-5.65439 -0.331989,-6.93884 z"
           stroke-miterlimit="10"
           style="fill:#ffffff;stroke:#000000;stroke-width:3.6128912;stroke-linecap:round;stroke-linejoin:round;stroke-miterlimit:10;stroke-dasharray:none" />
        <path
           id="path3455"
           d="m -136.31341,807.26872 c -2.83727,5.04482 4.57811,9.19969 8.42198,5.70132 3.14076,-2.85859 5.61985,-5.28295 11.01509,-6.07475 -4.13181,-1.70055 -7.77415,-3.82403 -10.86996,-6.29734 -3.77681,1.47681 -6.83433,3.59049 -8.56711,6.67077 z"
           stroke-miterlimit="10"
           style="fill:#ffffff;stroke:#000000;stroke-width:3.6128912;stroke-linecap:round;stroke-linejoin:round;stroke-miterlimit:10;stroke-dasharray:none" />
        <path
           id="path3457"
           d="m -50.344515,811.58826 c 3.1779,4.11251 11.073801,0.37776 8.765489,-4.92965 -1.516547,-3.48713 -4.381751,-6.37939 -7.969063,-8.1182 -2.348957,2.19342 -5.139265,4.22939 -8.438666,6.00824 3.650935,1.72902 5.439858,4.18911 7.64224,7.03961 z"
           stroke-miterlimit="10"
           style="fill:#ffffff;stroke:#000000;stroke-width:3.6128912;stroke-linecap:round;stroke-linejoin:round;stroke-miterlimit:10;stroke-dasharray:none" />
        <path
           id="path3467"
           d="m -140.37292,666.07704 c 0,-2.0066 1.62421,-3.63313 3.62792,-3.63313 1.17505,0 2.21618,0.56177 2.87929,1.4293 1.60351,-2.62332 3.53666,-4.88618 5.73359,-6.8323 -1.08839,-1.05323 -2.85686,-1.8226 -5.63279,-2.19549 -8.94024,-1.20179 -13.50885,3.21504 -14.55262,9.13462 -1.00716,5.71198 2.06477,11.84635 8.92702,13.44119 0.70831,-2.78861 1.57613,-5.34661 2.57697,-7.71454 -1.97174,-0.0372 -3.55938,-1.64639 -3.55938,-3.62965 z"
           stroke-miterlimit="10"
           style="fill:#ffffff;stroke:#000000;stroke-width:3.6128912;stroke-linecap:round;stroke-linejoin:round;stroke-miterlimit:10;stroke-dasharray:none" />
        <path
           id="path3469"
           d="m -136.745,662.44391 c -2.00371,0 -3.62792,1.62653 -3.62792,3.63313 0,1.98326 1.58764,3.59251 3.55938,3.62936 0.7138,-1.68899 1.49465,-3.28213 2.3357,-4.79058 0.19762,-0.35443 0.40309,-0.70083 0.61213,-1.0429 -0.66311,-0.86724 -1.70453,-1.42901 -2.87929,-1.42901 z" />
        <path
           id="path3471"
           d="m -33.001296,661.64781 c -1.043746,-5.91986 -5.612341,-10.33644 -14.552296,-9.13462 -3.099572,0.41664 -4.942616,1.32738 -5.985802,2.57556 1.977227,1.70742 3.817092,3.66965 5.549003,5.90777 0.08418,0.10838 0.164025,0.21822 0.246761,0.32696 0.661087,-0.89115 1.716918,-1.47102 2.9104,-1.47102 2.00371,0 3.627921,1.62652 3.627921,3.63309 0,1.75897 -1.248181,3.2254 -2.906065,3.56057 1.231454,2.38491 2.230021,4.95212 3.029301,7.81501 6.266238,-1.88625 9.045632,-7.74246 8.080777,-13.21343 z"
           stroke-miterlimit="10"
           style="fill:#ffffff;stroke:#000000;stroke-width:3.6128912;stroke-linecap:round;stroke-linejoin:round;stroke-miterlimit:10;stroke-dasharray:none" />
        <path
           id="path3473"
           d="m -41.205309,663.48565 c 0,-2.00656 -1.624211,-3.63308 -3.627921,-3.63308 -1.193771,0 -2.249313,0.57987 -2.9104,1.47102 1.386374,1.82693 2.593405,3.71026 3.632256,5.72264 1.657884,-0.33528 2.906065,-1.8016 2.906065,-3.56058 z" />
        <path
           id="path3475"
           d="m -47.74363,661.32359 c -0.08274,-0.10875 -0.16258,-0.21858 -0.246761,-0.32697 -1.732201,-2.23811 -3.571776,-4.20034 -5.549003,-5.90776 -8.579461,-7.40791 -19.746836,-10.0171 -35.913007,-9.53713 -14.017039,0.41664 -28.929249,2.85223 -38.679719,11.48928 -2.19693,1.94584 -4.12979,4.2087 -5.73359,6.83231 -0.20919,0.34214 -0.41433,0.68843 -0.61213,1.04289 -0.84105,1.50846 -1.6219,3.10131 -2.3357,4.79059 -1.00084,2.36793 -1.86866,4.92592 -2.57697,7.71453 -1.37257,5.40446 -2.14884,11.67069 -2.14855,19.07741 5.8e-4,12.99517 2.5528,19.44339 2.39903,31.92546 -0.0108,0.81947 -0.0325,1.66482 -0.0665,2.53986 -0.0585,1.47391 -0.1102,2.95097 -0.15644,4.42691 -0.47596,15.29113 -0.30565,30.48092 -0.4316,40.89652 -0.11561,9.56047 4.21701,18.05441 12.04845,24.31086 3.09582,2.47331 6.73815,4.59679 10.86997,6.29734 7.2308,2.97634 15.95651,4.66041 25.868839,4.66041 14.472809,0 25.181238,-2.77911 33.021032,-7.00706 3.2994,-1.77884 6.089419,-3.81481 8.438666,-6.00823 5.861988,-5.47299 8.974783,-11.9267 10.368095,-17.82178 3.302558,-13.97127 2.86951,-24.20919 1.390985,-45.59986 -0.02963,-0.43073 -0.05961,-0.86438 -0.09011,-1.30403 -0.1693,-2.4339 -0.29427,-4.59163 -0.385539,-6.55419 -0.498983,-10.75218 0.01843,-15.63952 -0.137904,-27.9111 -0.133316,-10.44353 -0.919929,-18.18599 -2.679479,-24.48763 -0.79928,-2.86264 -1.797847,-5.42982 -3.029301,-7.81505 -1.039429,-2.01321 -2.246171,-3.89683 -3.632834,-5.72347 z"
           stroke-miterlimit="10"
           style="fill:#ffffff;stroke:#000000;stroke-width:3.6128912;stroke-linecap:round;stroke-linejoin:round;stroke-miterlimit:10;stroke-dasharray:none" />
        <ellipse
           id="ellipse3477"
           ry="15.289116"
           rx="15.807392"
           cy="671.00586"
           cx="-110.70169"
           stroke-miterlimit="10"
           style="fill:#ffffff;stroke:#000000;stroke-width:3.6128912;stroke-linecap:round;stroke-linejoin:round;stroke-miterlimit:10;stroke-dasharray:none" />
        <circle
           id="circle3479"
           r="5.4418888"
           cy="671.00586"
           cx="-110.70169"
           style="fill:#ff0000" />
        <ellipse
           id="ellipse3483"
           ry="15.289116"
           rx="15.807392"
           cy="669.19159"
           cx="-71.053658"
           stroke-miterlimit="10"
           style="fill:#ffffff;stroke:#000000;stroke-width:3.6128912;stroke-linecap:round;stroke-linejoin:round;stroke-miterlimit:10;stroke-dasharray:none" />
        <circle
           id="circle3485"
           r="5.4418888"
           cy="669.19159"
           cx="-71.053658"
           style="fill:#ff0000" />
        <path
           id="path3489"
           d="m -90.302659,693.67982 c -3.105027,0.0542 -3.57062,1.43933 -6.243762,1.91674 -0.0943,1.64896 -0.214606,3.90604 -0.334916,6.59245 -0.259044,5.78741 7.08311,4.49172 7.08311,1.03653 0,-2.62848 0,-7.40382 0,-9.53969 -0.161135,-0.007 -0.327328,-0.007 -0.504468,-0.007 z"
           stroke-miterlimit="10"
           style="fill:#ffffff;stroke:#000000;stroke-width:3.6128912;stroke-linecap:round;stroke-linejoin:round;stroke-miterlimit:10;stroke-dasharray:none" />
        <path
           id="path3491"
           d="m -89.798191,703.22529 c 0,3.45515 7.342226,4.75084 7.083074,-1.03657 -0.123561,-2.75895 -0.246761,-5.0647 -0.342503,-6.72403 -3.365588,-0.15355 -3.776194,-1.67374 -6.740715,-1.77913 0,2.13558 0,6.91092 0,9.53973 z"
           stroke-miterlimit="10"
           style="fill:#ffffff;stroke:#000000;stroke-width:3.6128912;stroke-linecap:round;stroke-linejoin:round;stroke-miterlimit:10;stroke-dasharray:none" />
        <path
           id="path3493"
           d="m -78.870098,687.90793 c -1.253637,-1.34894 -2.74139,-2.08402 -4.729238,-2.43906 -1.055001,1.54505 -3.682946,2.64005 -6.760334,2.64005 -2.959356,0 -5.50294,-1.01295 -6.632185,-2.46468 -2.128101,0.408 -3.671995,1.20497 -4.938025,2.66624 -2.48397,2.86748 -1.27756,7.16686 2.060429,7.39837 1.427273,0.099 2.483105,0.0376 3.32303,-0.11272 2.673142,-0.47741 3.138735,-1.86263 6.243762,-1.91675 0.177032,-0.003 0.343225,0 0.504468,0.007 2.964233,0.10549 3.374838,1.62565 6.740716,1.77913 0.665711,0.0289 1.446566,0.007 2.386676,-0.091 3.328195,-0.34756 4.383738,-4.68635 1.800701,-7.46546 z"
           stroke-miterlimit="10"
           style="fill:#ffffff;stroke:#000000;stroke-width:3.6128912;stroke-linecap:round;stroke-linejoin:round;stroke-miterlimit:10;stroke-dasharray:none" />
        <path
           id="path3495"
           d="m -90.359381,688.10892 c 3.077388,0 5.705044,-1.095 6.760334,-2.64005 0.318657,-0.467 0.495797,-0.97465 0.495797,-1.50614 0,-2.28993 -3.248134,-4.14623 -7.255842,-4.14623 -4.00713,0 -7.255842,1.8563 -7.255842,4.14623 0,0.59887 0.223999,1.16725 0.623657,1.68151 1.128667,1.45173 3.67254,2.46468 6.631896,2.46468 z" />
        <path
           id="path4428"
           style="fill:#ffffff;fill-opacity:1;fill-rule:nonzero;stroke:#000000;stroke-width:3.6128912;stroke-miterlimit:4;stroke-dasharray:none"
           d="m -47.736979,638.11783 c -6.294488,0 -11.413629,-5.11918 -11.413629,-11.41363 0,-6.29449 5.119141,-11.41363 11.413629,-11.41363 6.292103,0 11.413622,5.11914 11.413622,11.41363 0,6.29445 -5.121519,11.41363 -11.413622,11.41363" />
        <path
           style="fill:none;fill-rule:evenodd;stroke:#000000;stroke-width:3.6128912;stroke-linecap:butt;stroke-linejoin:miter;stroke-miterlimit:4;stroke-dasharray:none;stroke-opacity:1"
           d="m -91.329258,646.6113 9.74693,-27.96941 22.884054,5.9329"
           id="path4519" />
      </g>
    </g>
  </g>
</svg>
